# xmcd
#
# Track frame offsets:
#	150
#	12830
#	25405
#	38597
#	48884
#	62966
#	76892
#	92546
#	105720
#	124905
#	137373
#	152007
#	167210
#	181490
#	196200
#	211312
#	224988
#
# Disc length: 3189 seconds
#
# Revision: 1
# Processed by: cddbd v1.5PL3 Copyright (c) Steve Scherf et al.
# Submitted via: CDmax 2.0
#
DISCID=e80c7311
DTITLE=Frank Sinatra - That old black magic
DYEAR=1900
DGENRE=Jazz
TTITLE0=That Old Black Magic
TTITLE1=All The Things You Are
TTITLE2=My Heart Stood Still
TTITLE3=As Time Goes By
TTITLE4=I'll Be Seeing You
TTITLE5=If You Are But A Dream
TTITLE6=There's No You
TTITLE7=When Your Lover Has Gone
TTITLE8=Stormy Weather
TTITLE9=Saturday Night
TTITLE10=Nancy
TTITLE11=The House I Live In
TTITLE12=These Foolish Things
TTITLE13=Where Or When
TTITLE14=Someone To Watch Over Me
TTITLE15=You Go To My Head
TTITLE16=I Only Have Eyes For You
EXTD=
EXTT0=
EXTT1=
EXTT2=
EXTT3=
EXTT4=
EXTT5=
EXTT6=
EXTT7=
EXTT8=
EXTT9=
EXTT10=
EXTT11=
EXTT12=
EXTT13=
EXTT14=
EXTT15=
EXTT16=
PLAYORDER=
